<svg width="1198" height="375" viewBox="0 0 1198 375" fill="none" xmlns="http://www.w3.org/2000/svg">
<path d="M207.713 6H107.829C97.406 6 88.0766 12.4669 84.419 22.2272L12.656 213.727C6.53169 230.07 18.6135 247.5 36.0663 247.5H137.536C148.026 247.5 157.4 240.951 161.009 231.102L231.186 39.6021C237.165 23.2875 225.088 6 207.713 6Z" fill="white" stroke="white" stroke-width="12"/>
<path d="M87.0909 173V79.9091H124.364C131.212 79.9091 136.924 80.9242 141.5 82.9545C146.076 84.9848 149.515 87.803 151.818 91.4091C154.121 94.9848 155.273 99.1061 155.273 103.773C155.273 107.409 154.545 110.606 153.091 113.364C151.636 116.091 149.636 118.333 147.091 120.091C144.576 121.818 141.697 123.045 138.455 123.773V124.682C142 124.833 145.318 125.833 148.409 127.682C151.53 129.53 154.061 132.121 156 135.455C157.939 138.758 158.909 142.697 158.909 147.273C158.909 152.212 157.682 156.621 155.227 160.5C152.803 164.348 149.212 167.394 144.455 169.636C139.697 171.879 133.833 173 126.864 173H87.0909ZM106.773 156.909H122.818C128.303 156.909 132.303 155.864 134.818 153.773C137.333 151.652 138.591 148.833 138.591 145.318C138.591 142.742 137.97 140.47 136.727 138.5C135.485 136.53 133.712 134.985 131.409 133.864C129.136 132.742 126.424 132.182 123.273 132.182H106.773V156.909ZM106.773 118.864H121.364C124.061 118.864 126.455 118.394 128.545 117.455C130.667 116.485 132.333 115.121 133.545 113.364C134.788 111.606 135.409 109.5 135.409 107.045C135.409 103.682 134.212 100.97 131.818 98.9091C129.455 96.8485 126.091 95.8182 121.727 95.8182H106.773V118.864Z" fill="black"/>
<path d="M348.713 127H248.829C238.406 127 229.077 133.467 225.419 143.227L153.656 334.727C147.532 351.07 159.614 368.5 177.066 368.5H278.536C289.026 368.5 298.4 361.951 302.009 352.102L372.186 160.602C378.165 144.288 366.088 127 348.713 127Z" fill="white" stroke="white" stroke-width="12"/>
<path d="M255.227 261.636H271.955L280.364 272.455L288.636 282.091L304.227 301.636H285.864L275.136 288.455L269.636 280.636L255.227 261.636ZM305.636 247.455C305.636 257.606 303.712 266.242 299.864 273.364C296.045 280.485 290.833 285.924 284.227 289.682C277.652 293.409 270.258 295.273 262.045 295.273C253.773 295.273 246.348 293.394 239.773 289.636C233.197 285.879 228 280.439 224.182 273.318C220.364 266.197 218.455 257.576 218.455 247.455C218.455 237.303 220.364 228.667 224.182 221.545C228 214.424 233.197 209 239.773 205.273C246.348 201.515 253.773 199.636 262.045 199.636C270.258 199.636 277.652 201.515 284.227 205.273C290.833 209 296.045 214.424 299.864 221.545C303.712 228.667 305.636 237.303 305.636 247.455ZM285.682 247.455C285.682 240.879 284.697 235.333 282.727 230.818C280.788 226.303 278.045 222.879 274.5 220.545C270.955 218.212 266.803 217.045 262.045 217.045C257.288 217.045 253.136 218.212 249.591 220.545C246.045 222.879 243.288 226.303 241.318 230.818C239.379 235.333 238.409 240.879 238.409 247.455C238.409 254.03 239.379 259.576 241.318 264.091C243.288 268.606 246.045 272.03 249.591 274.364C253.136 276.697 257.288 277.864 262.045 277.864C266.803 277.864 270.955 276.697 274.5 274.364C278.045 272.03 280.788 268.606 282.727 264.091C284.697 259.576 285.682 254.03 285.682 247.455Z" fill="black"/>
<path d="M463.5 245V128.636H513.955C522.818 128.636 530.261 129.83 536.284 132.216C542.345 134.602 546.909 137.973 549.977 142.33C553.083 146.686 554.636 151.818 554.636 157.727C554.636 162.008 553.689 165.909 551.795 169.432C549.939 172.955 547.326 175.909 543.955 178.295C540.583 180.644 536.644 182.273 532.136 183.182V184.318C537.136 184.508 541.682 185.777 545.773 188.125C549.864 190.436 553.121 193.636 555.545 197.727C557.97 201.78 559.182 206.553 559.182 212.045C559.182 218.409 557.515 224.072 554.182 229.034C550.886 233.996 546.189 237.898 540.091 240.739C533.992 243.58 526.72 245 518.273 245H463.5ZM495.091 219.773H509.864C515.167 219.773 519.144 218.788 521.795 216.818C524.447 214.811 525.773 211.856 525.773 207.955C525.773 205.227 525.148 202.917 523.898 201.023C522.648 199.129 520.867 197.689 518.557 196.705C516.284 195.72 513.538 195.227 510.318 195.227H495.091V219.773ZM495.091 175.682H508.045C510.811 175.682 513.254 175.246 515.375 174.375C517.496 173.504 519.144 172.254 520.318 170.625C521.53 168.958 522.136 166.932 522.136 164.545C522.136 160.947 520.848 158.201 518.273 156.307C515.697 154.375 512.439 153.409 508.5 153.409H495.091V175.682ZM570.83 245V157.727H602.193V245H570.83ZM586.511 148.636C582.269 148.636 578.633 147.235 575.602 144.432C572.572 141.629 571.057 138.258 571.057 134.318C571.057 130.379 572.572 127.008 575.602 124.205C578.633 121.402 582.269 120 586.511 120C590.792 120 594.428 121.402 597.42 124.205C600.451 127.008 601.966 130.379 601.966 134.318C601.966 138.258 600.451 141.629 597.42 144.432C594.428 147.235 590.792 148.636 586.511 148.636ZM619.082 245V227.727L657.264 182.045V181.591H620.446V157.727H694.31V176.818L659.537 220.682V221.136H695.673V245H619.082ZM757.562 201.818H782.108L790.972 212.955L805.972 230L825.517 253.636H797.562L783.699 237.5L774.381 224.091L757.562 201.818ZM825.29 186.818C825.29 199.773 822.771 210.701 817.733 219.602C812.695 228.466 805.896 235.189 797.335 239.773C788.775 244.318 779.229 246.591 768.699 246.591C758.093 246.591 748.509 244.299 739.949 239.716C731.426 235.095 724.646 228.352 719.608 219.489C714.608 210.587 712.108 199.697 712.108 186.818C712.108 173.864 714.608 162.955 719.608 154.091C724.646 145.189 731.426 138.466 739.949 133.92C748.509 129.337 758.093 127.045 768.699 127.045C779.229 127.045 788.775 129.337 797.335 133.92C805.896 138.466 812.695 145.189 817.733 154.091C822.771 162.955 825.29 173.864 825.29 186.818ZM792.79 186.818C792.79 179.848 791.862 173.977 790.006 169.205C788.188 164.394 785.479 160.758 781.881 158.295C778.32 155.795 773.926 154.545 768.699 154.545C763.472 154.545 759.059 155.795 755.46 158.295C751.9 160.758 749.191 164.394 747.335 169.205C745.517 173.977 744.608 179.848 744.608 186.818C744.608 193.788 745.517 199.678 747.335 204.489C749.191 209.261 751.9 212.898 755.46 215.398C759.059 217.86 763.472 219.091 768.699 219.091C773.926 219.091 778.32 217.86 781.881 215.398C785.479 212.898 788.188 209.261 790.006 204.489C791.862 199.678 792.79 193.788 792.79 186.818ZM897.108 206.818V157.727H928.472V245H898.699V228.409H897.79C895.896 233.977 892.581 238.333 887.847 241.477C883.112 244.583 877.487 246.136 870.972 246.136C864.873 246.136 859.532 244.735 854.949 241.932C850.403 239.129 846.862 235.265 844.324 230.341C841.824 225.417 840.555 219.773 840.517 213.409V157.727H871.881V206.818C871.919 211.136 873.017 214.527 875.176 216.989C877.373 219.451 880.441 220.682 884.381 220.682C886.994 220.682 889.248 220.133 891.142 219.034C893.074 217.898 894.551 216.307 895.574 214.261C896.634 212.178 897.146 209.697 897.108 206.818ZM986.469 246.591C976.999 246.591 968.893 244.716 962.151 240.966C955.408 237.178 950.238 231.913 946.639 225.17C943.041 218.39 941.241 210.53 941.241 201.591C941.241 192.652 943.041 184.811 946.639 178.068C950.238 171.288 955.408 166.023 962.151 162.273C968.893 158.485 976.999 156.591 986.469 156.591C995.938 156.591 1004.04 158.485 1010.79 162.273C1017.53 166.023 1022.7 171.288 1026.3 178.068C1029.9 184.811 1031.7 192.652 1031.7 201.591C1031.7 210.53 1029.9 218.39 1026.3 225.17C1022.7 231.913 1017.53 237.178 1010.79 240.966C1004.04 244.716 995.938 246.591 986.469 246.591ZM986.696 223.409C989.348 223.409 991.639 222.519 993.571 220.739C995.503 218.958 996.999 216.42 998.06 213.125C999.12 209.83 999.651 205.909 999.651 201.364C999.651 196.78 999.12 192.86 998.06 189.602C996.999 186.307 995.503 183.769 993.571 181.989C991.639 180.208 989.348 179.318 986.696 179.318C983.893 179.318 981.488 180.208 979.48 181.989C977.473 183.769 975.938 186.307 974.878 189.602C973.817 192.86 973.287 196.78 973.287 201.364C973.287 205.909 973.817 209.83 974.878 213.125C975.938 216.42 977.473 218.958 979.48 220.739C981.488 222.519 983.893 223.409 986.696 223.409ZM1096.47 157.727V180.455H1038.97V157.727H1096.47ZM1050.11 136.818H1081.47V216.932C1081.47 218.144 1081.68 219.167 1082.09 220C1082.51 220.795 1083.15 221.402 1084.03 221.818C1084.9 222.197 1086.01 222.386 1087.38 222.386C1088.32 222.386 1089.42 222.273 1090.67 222.045C1091.96 221.818 1092.91 221.629 1093.51 221.477L1098.06 243.523C1096.66 243.939 1094.65 244.451 1092.04 245.057C1089.46 245.663 1086.39 246.061 1082.83 246.25C1075.64 246.629 1069.59 245.89 1064.71 244.034C1059.82 242.14 1056.15 239.167 1053.68 235.114C1051.22 231.061 1050.03 225.985 1050.11 219.886V136.818ZM1150.15 246.591C1140.83 246.591 1132.8 244.811 1126.06 241.25C1119.35 237.652 1114.18 232.5 1110.55 225.795C1106.95 219.053 1105.15 210.985 1105.15 201.591C1105.15 192.576 1106.97 184.697 1110.6 177.955C1114.24 171.212 1119.37 165.966 1126 162.216C1132.63 158.466 1140.45 156.591 1149.47 156.591C1156.06 156.591 1162.02 157.614 1167.36 159.659C1172.7 161.705 1177.27 164.678 1181.06 168.58C1184.84 172.443 1187.76 177.14 1189.81 182.67C1191.85 188.201 1192.88 194.432 1192.88 201.364V208.636H1114.92V191.364H1164.01C1163.97 188.864 1163.33 186.667 1162.08 184.773C1160.87 182.841 1159.22 181.345 1157.14 180.284C1155.09 179.186 1152.76 178.636 1150.15 178.636C1147.61 178.636 1145.28 179.186 1143.16 180.284C1141.04 181.345 1139.33 182.822 1138.05 184.716C1136.8 186.61 1136.13 188.826 1136.06 191.364V210C1136.06 212.803 1136.64 215.303 1137.82 217.5C1138.99 219.697 1140.68 221.42 1142.88 222.67C1145.07 223.92 1147.72 224.545 1150.83 224.545C1152.99 224.545 1154.96 224.242 1156.74 223.636C1158.56 223.03 1160.11 222.159 1161.4 221.023C1162.69 219.848 1163.63 218.447 1164.24 216.818H1192.88C1191.89 222.879 1189.56 228.144 1185.89 232.614C1182.21 237.045 1177.34 240.492 1171.28 242.955C1165.26 245.379 1158.22 246.591 1150.15 246.591Z" fill="white"/>
</svg>
