<svg xmlns="http://www.w3.org/2000/svg" version="1.1" xmlns:xlink="http://www.w3.org/1999/xlink" xmlns:svgjs="http://svgjs.dev/svgjs" width="385" height="375"><svg width="385" height="375" viewBox="0 0 385 375" fill="none" xmlns="http://www.w3.org/2000/svg">
<path d="M207.713 6H107.829C97.406 6 88.0766 12.4669 84.419 22.2272L12.656 213.727C6.53169 230.07 18.6135 247.5 36.0663 247.5H137.536C148.026 247.5 157.4 240.951 161.009 231.102L231.186 39.6021C237.165 23.2875 225.088 6 207.713 6Z" fill="white" stroke="white" stroke-width="12"></path>
<path d="M87.0909 173V79.9091H124.364C131.212 79.9091 136.924 80.9242 141.5 82.9545C146.076 84.9848 149.515 87.803 151.818 91.4091C154.121 94.9848 155.273 99.1061 155.273 103.773C155.273 107.409 154.545 110.606 153.091 113.364C151.636 116.091 149.636 118.333 147.091 120.091C144.576 121.818 141.697 123.045 138.455 123.773V124.682C142 124.833 145.318 125.833 148.409 127.682C151.53 129.53 154.061 132.121 156 135.455C157.939 138.758 158.909 142.697 158.909 147.273C158.909 152.212 157.682 156.621 155.227 160.5C152.803 164.348 149.212 167.394 144.455 169.636C139.697 171.879 133.833 173 126.864 173H87.0909ZM106.773 156.909H122.818C128.303 156.909 132.303 155.864 134.818 153.773C137.333 151.652 138.591 148.833 138.591 145.318C138.591 142.742 137.97 140.47 136.727 138.5C135.485 136.53 133.712 134.985 131.409 133.864C129.136 132.742 126.424 132.182 123.273 132.182H106.773V156.909ZM106.773 118.864H121.364C124.061 118.864 126.455 118.394 128.545 117.455C130.667 116.485 132.333 115.121 133.545 113.364C134.788 111.606 135.409 109.5 135.409 107.045C135.409 103.682 134.212 100.97 131.818 98.9091C129.455 96.8485 126.091 95.8182 121.727 95.8182H106.773V118.864Z" fill="black"></path>
<path d="M348.713 127H248.829C238.406 127 229.077 133.467 225.419 143.227L153.656 334.727C147.532 351.07 159.614 368.5 177.066 368.5H278.536C289.026 368.5 298.4 361.951 302.009 352.102L372.186 160.602C378.165 144.288 366.088 127 348.713 127Z" fill="white" stroke="white" stroke-width="12"></path>
<path d="M255.227 261.636H271.955L280.364 272.455L288.636 282.091L304.227 301.636H285.864L275.136 288.455L269.636 280.636L255.227 261.636ZM305.636 247.455C305.636 257.606 303.712 266.242 299.864 273.364C296.045 280.485 290.833 285.924 284.227 289.682C277.652 293.409 270.258 295.273 262.045 295.273C253.773 295.273 246.348 293.394 239.773 289.636C233.197 285.879 228 280.439 224.182 273.318C220.364 266.197 218.455 257.576 218.455 247.455C218.455 237.303 220.364 228.667 224.182 221.545C228 214.424 233.197 209 239.773 205.273C246.348 201.515 253.773 199.636 262.045 199.636C270.258 199.636 277.652 201.515 284.227 205.273C290.833 209 296.045 214.424 299.864 221.545C303.712 228.667 305.636 237.303 305.636 247.455ZM285.682 247.455C285.682 240.879 284.697 235.333 282.727 230.818C280.788 226.303 278.045 222.879 274.5 220.545C270.955 218.212 266.803 217.045 262.045 217.045C257.288 217.045 253.136 218.212 249.591 220.545C246.045 222.879 243.288 226.303 241.318 230.818C239.379 235.333 238.409 240.879 238.409 247.455C238.409 254.03 239.379 259.576 241.318 264.091C243.288 268.606 246.045 272.03 249.591 274.364C253.136 276.697 257.288 277.864 262.045 277.864C266.803 277.864 270.955 276.697 274.5 274.364C278.045 272.03 280.788 268.606 282.727 264.091C284.697 259.576 285.682 254.03 285.682 247.455Z" fill="black"></path>
</svg><style>@media (prefers-color-scheme: light) { :root { filter: none; } }
@media (prefers-color-scheme: dark) { :root { filter: none; } }
</style></svg>