<svg width="476" height="476" viewBox="0 0 476 476" fill="none" xmlns="http://www.w3.org/2000/svg">
<path id="Vector" fill-rule="evenodd" clip-rule="evenodd" d="M355.43 1.37254C324.447 7.09454 297.216 27.5725 282.924 55.8995C249.828 121.495 295.065 199.55 368.508 203.573C409.424 205.815 446.885 183.988 465.383 147.129C473.383 131.189 476.506 115.811 475.656 96.5415C474.489 70.0755 464.868 48.6275 445.516 29.3465C425.851 9.75353 401.61 -0.182463 373.93 0.00253654C367.605 0.0455365 359.28 0.661535 355.43 1.37254ZM363.43 28.9385C334.871 33.3055 310.008 55.7255 302.898 83.5225C300.48 92.9785 300.281 109.483 302.472 118.9C303.304 122.475 306.085 129.675 308.653 134.9C312.582 142.893 314.759 145.836 322.376 153.454C329.994 161.071 332.937 163.248 340.93 167.177C352.909 173.064 360.646 174.867 374.02 174.885C393.754 174.913 409.676 168.628 423.994 155.158C461.679 119.707 452.708 58.8025 406.43 35.9195C393.646 29.5985 376.897 26.8785 363.43 28.9385ZM44.0301 67.9335C26.1581 70.5285 9.81115 83.8735 2.83915 101.56C0.773151 106.8 0.496151 109.439 0.141151 127.265C-0.192849 144.061 0.00314999 147.804 1.41415 151.496C3.56015 157.118 10.5382 163.312 16.3812 164.783C19.1132 165.471 31.3972 165.9 48.3731 165.9H75.9302V296.716C75.9302 385.721 76.2741 429.429 77.0061 433.466C80.4711 452.58 96.2552 469.363 115.472 474.369C120.627 475.712 140.231 475.9 274.746 475.9C411.468 475.9 428.809 475.728 434.286 474.316C452.086 469.726 465.933 456.016 471.569 437.4C473.038 432.547 473.39 427.863 473.408 412.9C473.428 395.826 473.264 394.092 471.272 390.4C470.084 388.2 467.834 385.186 466.272 383.703C460.695 378.411 457.896 377.9 434.462 377.9H412.93L412.924 310.65C412.921 268.078 412.545 242.054 411.9 239.732C411.329 237.675 409.34 234.711 407.371 232.982C404.439 230.408 403.027 229.9 398.799 229.9C392.598 229.9 388.81 231.989 386.024 236.946C383.955 240.628 383.93 241.496 383.93 309.286V377.9L276.68 377.922C174.968 377.943 169.223 378.038 165.43 379.771C163.23 380.776 159.988 383.081 158.225 384.893C153.11 390.152 151.93 395.212 151.93 411.9C151.93 422.412 151.499 427.809 150.402 431.028C144.559 448.176 123.754 452.802 111.231 439.738C104.459 432.673 104.934 445.115 104.895 273.682C104.859 111.207 104.822 109.715 100.615 99.6755L99.0542 95.9525L167.742 95.6755L236.43 95.3995L239.557 93.1695C248.801 86.5755 247.316 72.6715 236.923 68.5135C233.306 67.0655 223.426 66.9125 141.16 67.0245C90.7081 67.0925 47.0001 67.5015 44.0301 67.9335ZM397.43 74.0975C396.33 74.7225 388.68 80.6925 380.43 87.3655C372.18 94.0375 364.899 99.8195 364.25 100.214C363.516 100.66 361.32 98.6555 358.436 94.9075C352.689 87.4385 349.248 85.5185 342.732 86.1445C335.389 86.8505 329.93 92.8595 329.93 100.236C329.93 104.187 333.889 110.464 345.169 124.4C353.087 134.182 357.211 136.621 363.765 135.399C368.034 134.603 413.626 98.2565 416.18 93.6125C419.804 87.0225 417.225 77.6545 410.883 74.3755C407.518 72.6345 400.266 72.4845 397.43 74.0975ZM44.0672 97.2075C39.1592 99.0725 33.2162 104.428 30.7362 109.219C28.9852 112.602 28.4871 115.643 28.1271 125.15L27.6831 136.9H51.9102H76.1362L75.7502 124.65C75.3282 111.285 74.4731 108.597 68.8531 102.977C67.1291 101.252 64.3232 99.1205 62.6192 98.2385C58.5732 96.1465 48.3531 95.5785 44.0672 97.2075ZM167.946 191.907C165.974 192.38 163.044 194.29 161.196 196.307C158.399 199.359 157.93 200.604 157.93 204.981C157.93 211.235 160.005 215.012 164.976 217.806C168.631 219.86 169.742 219.9 222.915 219.9C282.265 219.9 281.614 219.961 285.864 213.993C290.579 207.372 288.595 197.547 281.701 193.378C278.56 191.478 276.307 191.393 224.93 191.236C195.505 191.145 169.862 191.448 167.946 191.907ZM166.38 253.307C164.703 254.037 162.116 256.079 160.63 257.844C158.428 260.462 157.93 262.047 157.93 266.442C157.93 271.039 158.384 272.348 161.023 275.353C162.724 277.29 165.761 279.36 167.773 279.952C170.187 280.663 184.186 280.922 208.976 280.714C250.586 280.366 249.691 280.508 254.033 273.596C256.83 269.144 256.234 260.936 252.847 257.263C248.012 252.02 246.947 251.897 206.712 251.939C177.982 251.969 168.731 252.283 166.38 253.307ZM180.899 414.15C180.858 425.147 179.439 435.501 177.037 442.336L175.068 447.937L301.249 447.669L427.43 447.4L431.43 445.242C436.666 442.416 440.338 438.448 442.849 432.9C444.505 429.242 444.89 426.296 444.908 417.15L444.93 405.9H312.93H180.93L180.899 414.15Z" fill="white" fill-opacity="0.987"/>
</svg>
