<svg width="513" height="458" viewBox="0 0 513 458" fill="none" xmlns="http://www.w3.org/2000/svg">
<path id="Vector" fill-rule="evenodd" clip-rule="evenodd" d="M92.1261 1.29058C73.9131 6.21958 57.5991 20.5636 47.5281 40.5056C46.0661 43.4006 43.5231 49.7886 41.8771 54.7016C35.8221 72.7746 35.9291 69.7396 35.9231 223.424L35.9171 363.605L19.8261 363.924C4.0491 364.237 3.6961 364.292 1.7021 366.743C-0.113901 368.975 -0.266901 370.154 0.275099 377.743C3.0701 416.866 32.6271 449.451 71.4651 456.223C84.6091 458.515 427.225 458.515 440.369 456.223C475.284 450.135 504.065 422.016 510.019 388.178C510.691 384.364 511.617 380.815 512.078 380.293C513.036 379.209 513.248 367.079 512.293 368.034C511.95 368.377 510.865 367.665 509.883 366.45C508.198 364.366 507.2 364.225 492.008 363.924L475.917 363.605L475.911 223.424C475.906 104.871 475.677 81.7296 474.428 73.4396C469.276 39.2636 450.277 12.3966 424.237 2.46258L418.417 0.24258L257.917 0.0505801C121.352 -0.11242 96.6281 0.0725799 92.1261 1.29058ZM96.4171 16.1536C77.3971 20.8736 62.2951 38.3366 54.7181 64.3686L52.4261 72.2426L52.1521 217.993L51.8781 363.743H132.287C209.932 363.743 212.777 363.809 215.056 365.652C217.294 367.462 217.434 368.27 217.744 381.152L218.072 394.743H255.994H293.917V381.316C293.917 368.001 293.939 367.871 296.552 365.816C299.168 363.758 299.763 363.743 379.552 363.743H459.917V221.201C459.917 65.7186 460.166 72.9266 454.23 56.3696C446.656 35.2406 430.946 19.3726 414.118 15.8516C406.096 14.1726 103.236 14.4616 96.4171 16.1536ZM103.934 91.0286C100.942 92.5426 99.3821 96.4756 100.309 100.168C101.776 106.012 94.2831 105.743 255.736 105.743C357.754 105.743 404.566 105.413 406.673 104.678C412.67 102.588 413.457 93.8396 407.9 91.0286C404.261 89.1876 107.573 89.1876 103.934 91.0286ZM101.917 135.743C99.1371 138.523 99.3411 143.258 102.372 146.288L104.826 148.743H255.917H407.008L409.462 146.288C410.812 144.938 411.917 142.884 411.917 141.723C411.917 139.331 410.162 135.606 408.517 134.508C407.912 134.104 339.129 133.767 255.667 133.758C105.24 133.743 103.9 133.76 101.917 135.743ZM241.159 182.756C239.917 183.267 238.463 184.71 237.928 185.964C235.873 190.782 208.917 293.542 208.917 296.56C208.917 303.224 217.606 306.497 221.65 301.356C223.763 298.67 251.959 194.195 251.933 189.148C251.907 184.09 246.178 180.691 241.159 182.756ZM113.372 201.198L110.917 203.652V231.516C110.917 264.273 111.413 267.081 118.437 274.105C125.647 281.315 136.996 284.119 147.782 281.356C156.22 279.195 161.823 275.147 165.455 268.591L168.417 263.243L168.72 233.108L169.024 202.972L166.336 200.858C163.003 198.236 158.523 198.137 156.029 200.631C154.384 202.276 154.046 204.812 153.397 220.377C152.988 230.2 152.89 242.534 153.18 247.788C153.792 258.903 152.641 262.8 148.042 265.178C144.192 267.169 135.691 267.195 131.884 265.226C126.216 262.295 125.917 260.553 125.917 230.467C125.917 203.145 125.913 203.087 123.603 200.917C120.532 198.033 116.424 198.146 113.372 201.198ZM186.778 200.654L184.417 202.565L184.132 239.475C183.853 275.714 183.886 276.434 185.955 279.064C188.674 282.521 194.635 282.817 197.512 279.638C199.314 277.647 199.417 275.507 199.417 240.05V202.566L197.056 200.655C194.042 198.214 189.793 198.213 186.778 200.654ZM265.778 205.655L263.417 207.567V236.905C263.417 271.114 263.729 272.692 271.967 280.098C280.679 287.931 294.195 289.809 305.592 284.769C311.916 281.973 315.636 278.372 318.534 272.243C320.853 267.338 320.897 266.685 320.892 237.743C320.889 221.518 320.556 207.748 320.152 207.143C319.054 205.498 315.329 203.743 312.937 203.743C311.776 203.743 309.722 204.848 308.372 206.198L305.917 208.652V236.475C305.917 260.069 305.68 264.637 304.356 266.526C299.295 273.753 283.733 273.623 280.013 266.324C279.361 265.043 278.85 253.349 278.685 235.903L278.417 207.564L276.056 205.653C273.04 203.213 268.792 203.214 265.778 205.655ZM338.84 206.666C337.232 208.274 335.917 210.455 335.917 211.514C335.917 212.573 341.099 220.69 347.433 229.552L358.95 245.665L347.433 261.199C336.288 276.233 334.923 278.989 336.538 283.198C336.88 284.089 338.501 285.511 340.141 286.359C344.984 288.863 347.432 286.967 358.327 272.272L368.236 258.906L377.827 272.304C388.324 286.969 390.805 288.887 395.886 286.259C403.421 282.362 401.358 277.469 380.252 249.182L377.968 246.121L389.425 230.682C402.577 212.959 403.549 209.673 396.688 206.125C391.508 203.446 389.634 204.823 378.774 219.287C373.197 226.716 368.514 232.669 368.368 232.518C368.222 232.367 363.972 226.393 358.925 219.243C353.878 212.093 349.025 205.681 348.141 204.993C345.489 202.93 341.938 203.568 338.84 206.666ZM0.237099 374.743C0.237099 378.318 0.419099 379.781 0.640099 377.993C0.862099 376.205 0.862099 373.281 0.640099 371.493C0.419099 369.705 0.237099 371.168 0.237099 374.743ZM16.3701 383.281C19.7501 405.821 37.4841 427.955 59.4171 437.01C72.7711 442.523 62.2231 442.243 256.417 442.243C428.252 442.243 436.712 442.159 442.917 440.401C463.594 434.541 480.523 420.388 489.42 401.524C492.739 394.487 495.917 384.219 495.917 380.533C495.917 378.826 491.592 378.743 402.417 378.743H308.917V392.243C308.917 407.361 308.246 409.04 301.723 410.239C299.905 410.573 277.789 410.71 252.578 410.545L206.739 410.243L204.828 407.882C203.159 405.821 202.917 403.823 202.917 392.132V378.743H109.303H15.6901L16.3701 383.281Z" fill="white" fill-opacity="0.989"/>
</svg>
