<svg width="512" height="512" viewBox="0 0 512 512" fill="none" xmlns="http://www.w3.org/2000/svg">
<path id="Vector" fill-rule="evenodd" clip-rule="evenodd" d="M251.983 1.10771C250.808 1.67571 249.346 3.24171 248.733 4.58671C247.16 8.03971 247.175 99.8677 248.749 103.323C251.279 108.877 259.959 108.877 262.489 103.323C264.06 99.8757 264.078 8.03971 262.509 4.59471C261.427 2.22171 257.744 -0.131294 255.322 0.00570582C254.66 0.0427058 253.158 0.538706 251.983 1.10771ZM215.269 23.5357C169.455 31.8127 126.718 53.3437 93.2647 85.0047C59.7907 116.685 34.9567 160.817 25.2037 205.957C23.8387 212.271 22.4287 220.363 22.0687 223.938C21.4667 229.915 21.6037 230.613 23.7667 232.614C27.5187 236.085 30.9047 236.465 33.9787 233.761C36.2637 231.751 36.8897 229.822 38.6277 219.438C54.1437 126.714 126.293 54.5697 219.119 38.9567C229.356 37.2347 231.45 36.5627 233.369 34.3827C236.297 31.0557 236.223 27.4507 233.164 24.3927C230.3 21.5277 227.204 21.3797 215.269 23.5357ZM278.203 24.2627C275.023 27.4437 274.905 31.0147 277.869 34.3827C279.79 36.5647 281.874 37.2317 292.119 38.9467C384.918 54.4757 456.974 126.536 472.6 219.438C474.351 229.85 474.971 231.748 477.282 233.78C480.506 236.616 485.114 236.144 487.982 232.685C490.287 229.905 489.785 223.106 486.008 205.938C472.801 145.911 437.121 93.6887 386.119 59.7387C357.48 40.6737 316.943 25.3127 287.453 22.3487C281.182 21.7187 280.634 21.8317 278.203 24.2627ZM217.619 71.9737C180.764 79.9367 150.333 96.3427 124.018 122.438C106.292 140.016 95.9697 154.453 85.6607 176.084C76.7877 194.704 68.4457 224.724 70.5837 230.345C71.8407 233.653 76.0237 236.304 78.8617 235.592C83.7027 234.376 84.6807 232.655 87.1477 221.004C91.9387 198.386 100.257 178.683 113.341 158.969C123.911 143.041 142.713 124.235 158.619 113.682C178.114 100.747 198.282 92.1927 220.191 87.5687C226.623 86.2107 232.49 84.4957 233.23 83.7557C233.969 83.0157 234.862 80.9727 235.214 79.2147C235.75 76.5307 235.365 75.5297 232.813 72.9777C229.343 69.5077 229.108 69.4917 217.619 71.9737ZM278.425 72.9777C275.873 75.5297 275.488 76.5307 276.024 79.2147C276.376 80.9727 277.269 83.0157 278.008 83.7557C278.748 84.4957 284.615 86.2107 291.047 87.5687C358.207 101.745 409.819 153.382 424.006 220.594C426.555 232.673 427.501 234.367 432.376 235.592C433.678 235.919 435.707 235.455 437.171 234.496C441.541 231.633 441.843 229.002 439.223 216.634C425.618 152.4 377.701 98.6037 315.633 77.8787C307.454 75.1467 285.742 69.9377 282.538 69.9377C281.948 69.9377 280.097 71.3057 278.425 72.9777ZM173.87 137.483C158.032 141.748 147.464 153.366 144.39 169.892C141.4 185.97 151.165 204.721 166.087 211.552C177.998 217.005 189.24 217.005 201.151 211.552C216.073 204.721 225.838 185.97 222.848 169.892C221.222 161.151 217.446 153.67 211.82 148.043C206.184 142.408 201.126 139.566 192.939 137.433C185.941 135.61 180.775 135.624 173.87 137.483ZM317.87 137.483C302.032 141.748 291.464 153.366 288.39 169.892C285.4 185.97 295.165 204.721 310.087 211.552C321.998 217.005 333.24 217.005 345.151 211.552C360.073 204.721 369.838 185.97 366.848 169.892C365.222 161.151 361.446 153.67 355.82 148.043C350.184 142.408 345.126 139.566 336.939 137.433C329.941 135.61 324.775 135.624 317.87 137.483ZM175.471 153.268C168.166 156 161.317 163.699 160.014 170.645C159.152 175.241 160.138 183.107 162.036 186.778C163.995 190.566 168.966 195.528 172.975 197.697C177.296 200.035 189.942 200.035 194.263 197.697C198.285 195.521 203.202 190.604 205.378 186.582C207.716 182.261 207.716 169.615 205.378 165.294C203.179 161.229 198.233 156.307 194.308 154.277C190.103 152.103 180.029 151.563 175.471 153.268ZM319.471 153.268C312.166 156 305.317 163.699 304.014 170.645C303.152 175.241 304.138 183.107 306.036 186.778C307.995 190.566 312.966 195.528 316.975 197.697C321.296 200.035 333.942 200.035 338.263 197.697C342.285 195.521 347.202 190.604 349.378 186.582C351.716 182.261 351.716 169.615 349.378 165.294C347.179 161.229 342.233 156.307 338.308 154.277C334.103 152.103 324.029 151.563 319.471 153.268ZM153.87 229.483C146.151 231.562 140.932 234.53 135.571 239.89C126.318 249.144 123.619 257.884 123.619 278.601C123.619 287.057 124.078 293.851 124.749 295.323C127.279 300.877 135.959 300.877 138.489 295.323C139.167 293.836 139.628 286.762 139.641 277.641C139.666 260.647 140.587 257.124 146.574 251.137C153.104 244.607 153.669 244.489 181.119 243.919C194.869 243.634 206.865 243.039 207.777 242.597C208.69 242.156 209.982 240.477 210.649 238.866C212.2 235.122 210.549 230.683 207.004 229.068C203.219 227.343 160.58 227.676 153.87 229.483ZM303.94 229.087C300.642 230.742 299.095 235.258 300.589 238.866C301.256 240.477 302.548 242.156 303.461 242.597C304.373 243.039 316.369 243.634 330.119 243.919C357.494 244.487 358.15 244.622 364.542 251.015C370.553 257.026 371.069 258.94 371.4 276.438C371.566 285.238 372.172 293.637 372.746 295.102C374.188 298.78 378.696 300.563 382.533 298.974C387.22 297.032 387.875 293.905 387.402 275.731C387.04 261.847 386.645 258.587 384.726 253.686C380.528 242.964 372.684 235.192 361.497 230.669C356.545 228.667 354.138 228.475 331.119 228.244C314.536 228.078 305.385 228.361 303.94 229.087ZM245.87 237.483C230.032 241.748 219.464 253.366 216.39 269.892C214.23 281.51 218.687 295.101 227.571 303.986C236.456 312.87 250.047 317.327 261.665 315.167C279.414 311.866 291.547 299.733 294.848 281.984C296.993 270.446 292.552 256.776 283.82 248.043C278.184 242.408 273.126 239.566 264.939 237.433C257.941 235.61 252.775 235.624 245.87 237.483ZM3.9397 249.127C2.7417 249.706 1.2247 251.476 0.568705 253.059C-0.962295 256.754 0.710705 261.203 4.2337 262.808C5.9637 263.597 20.8877 263.938 53.6187 263.938C86.3497 263.938 101.274 263.597 103.004 262.808C108.558 260.278 108.558 251.598 103.004 249.068C99.6707 247.549 7.0887 247.604 3.9397 249.127ZM407.94 249.127C406.742 249.706 405.225 251.476 404.569 253.059C403.038 256.754 404.711 261.203 408.234 262.808C409.964 263.597 424.888 263.938 457.619 263.938C490.35 263.938 505.274 263.597 507.004 262.808C512.558 260.278 512.558 251.598 507.004 249.068C503.671 247.549 411.089 247.604 407.94 249.127ZM247.471 253.268C242.556 255.106 238.671 258.279 235.393 263.132C232.136 267.954 231.161 272.423 231.937 278.976C232.629 284.817 234.504 288.669 238.696 292.861C243.919 298.084 247.321 299.398 255.619 299.398C263.917 299.398 267.319 298.084 272.542 292.861C277.765 287.638 279.079 284.236 279.079 275.938C279.079 267.64 277.765 264.238 272.542 259.015C270.818 257.29 268.012 255.159 266.308 254.277C262.103 252.103 252.029 251.563 247.471 253.268ZM23.9437 278.522C21.5127 280.953 21.3997 281.501 22.0297 287.772C24.7217 314.56 38.6437 353.303 55.1337 379.898C88.7077 434.045 143.22 472.598 205.619 486.327C222.787 490.104 229.586 490.606 232.366 488.301C235.826 485.433 236.296 480.829 233.461 477.577C231.478 475.302 229.662 474.658 221.619 473.375C150.774 462.075 90.5047 418.043 58.8127 354.431C48.5327 333.796 42.4507 315.109 38.6377 292.438C36.9157 282.201 36.2437 280.107 34.0637 278.188C30.6957 275.224 27.1247 275.342 23.9437 278.522ZM73.8767 277.437C69.5767 280.512 69.3467 282.21 71.6707 293.725C83.6777 353.209 124.713 403.619 181.301 428.402C198.589 435.973 225.172 442.819 230.063 440.959C235.772 438.789 237.136 430.534 232.282 427.533C231.092 426.797 226.069 425.43 221.119 424.494C216.169 423.558 207.394 421.228 201.619 419.316C143.073 399.93 99.9917 351.734 87.2497 291.366C85.8917 284.934 84.1767 279.067 83.4367 278.327C81.2117 276.102 76.3737 275.652 73.8767 277.437ZM429.861 276.972C426.992 278.125 426.218 280.084 423.603 292.819C416.092 329.389 394.739 364.463 365.119 388.886C344.222 406.116 315.696 419.659 290.119 424.494C285.169 425.43 280.146 426.797 278.956 427.533C275.938 429.399 275.009 434.357 277.083 437.523C279.923 441.857 282.575 442.158 294.923 439.542C367.547 424.16 424.871 366.298 439.607 293.499C441.887 282.232 441.643 280.469 437.389 277.489C434.915 275.756 433.183 275.637 429.861 276.972ZM477.174 278.188C474.994 280.107 474.322 282.201 472.6 292.438C456.984 385.285 384.966 457.303 292.119 472.919C281.707 474.67 279.809 475.29 277.777 477.601C274.941 480.825 275.413 485.433 278.872 488.301C281.652 490.606 288.451 490.104 305.619 486.327C368.018 472.598 422.53 434.045 456.104 379.898C472.594 353.303 486.516 314.56 489.208 287.772C489.838 281.501 489.725 280.953 487.294 278.522C484.113 275.342 480.542 275.224 477.174 278.188ZM225.87 329.447C218.094 331.594 212.907 334.555 207.571 339.89C198.318 349.144 195.619 357.884 195.619 378.601C195.619 387.057 196.078 393.851 196.749 395.323C199.279 400.877 207.959 400.877 210.489 395.323C211.167 393.836 211.628 386.762 211.641 377.641C211.666 360.647 212.587 357.124 218.574 351.137C225.279 344.432 225.246 344.438 255.619 344.438C285.918 344.438 285.975 344.448 292.542 351.015C298.553 357.026 299.069 358.94 299.4 376.438C299.566 385.238 300.172 393.637 300.746 395.102C302.188 398.78 306.696 400.563 310.533 398.974C315.22 397.032 315.875 393.905 315.402 375.731C315.04 361.847 314.645 358.587 312.726 353.686C308.529 342.967 300.691 335.199 289.497 330.665C284.506 328.643 282.21 328.469 257.619 328.242C236.949 328.051 229.964 328.316 225.87 329.447ZM251.983 405.108C250.808 405.676 249.346 407.242 248.733 408.587C247.16 412.04 247.175 503.868 248.749 507.323C251.279 512.877 259.959 512.877 262.489 507.323C264.06 503.876 264.078 412.04 262.509 408.595C261.427 406.222 257.744 403.869 255.322 404.006C254.66 404.043 253.158 404.539 251.983 405.108Z" fill="white" fill-opacity="0.982"/>
</svg>
