<svg width="480" height="414" viewBox="0 0 480 414" fill="none" xmlns="http://www.w3.org/2000/svg">
<path id="Vector" fill-rule="evenodd" clip-rule="evenodd" d="M215.5 0.980096C146.432 9.6411 86.286 51.9451 55.703 113.374C44.522 135.833 42.798 142.971 47.635 146.776C53.358 151.278 57.747 148.703 61.562 138.605C78.595 93.5161 112.84 56.0721 156.5 34.7971C216.693 5.46509 288.397 9.79909 343.784 46.1151C391.211 77.2111 421.45 125.464 429.472 182.849L430.101 187.349L426.301 183.792C422.525 180.258 402.263 161.667 392.293 152.59C388.245 148.904 386.336 147.849 383.717 147.849C379.091 147.849 375.744 151.457 376.178 155.974C376.463 158.933 379.843 162.406 405.5 186.111C421.45 200.847 435.594 213.185 436.931 213.53C442.317 214.918 443.724 212.88 461.216 178.349C470.41 160.199 478.474 143.646 479.135 141.564C480.201 138.209 480.108 137.47 478.317 135.064C477.205 133.571 475.139 131.937 473.725 131.433C468.857 129.699 466.692 132.488 455.335 155.129L444.691 176.349L442.365 165.349C438.075 145.053 433.672 132.277 424.817 114.428C394.157 52.6271 334.834 10.2131 266.699 1.37909C253.949 -0.273905 227.164 -0.482904 215.5 0.980096ZM224.286 76.8771C168.734 83.8941 124.393 125.176 112.359 181.081C109.842 192.774 109.823 219.157 112.323 230.849C120.955 271.216 146.561 304.582 182.904 322.82C190.567 326.665 206.811 332.055 216.5 333.967C227.121 336.064 255.314 335.773 266 333.458C290.917 328.058 311.833 316.879 329.998 299.252C349.808 280.03 361.899 258.067 367.657 230.849C370.151 219.06 370.145 192.655 367.646 181.081C356.252 128.313 316.841 89.0351 264.599 78.3811C254.971 76.4171 234.093 75.6381 224.286 76.8771ZM220.5 93.4381C197.261 97.5321 175.331 109.154 158.5 126.295C144.749 140.299 134.418 158.423 129.27 177.572C126.886 186.442 126.64 189.066 126.618 205.849C126.596 222.738 126.823 225.191 129.219 234.019C135.096 255.666 144.536 271.799 160.428 287.349C175.688 302.281 191.178 311.093 212.656 317.063C219.483 318.961 223.028 319.243 240 319.243C256.972 319.243 260.517 318.961 267.344 317.063C288.822 311.093 304.312 302.281 319.572 287.349C335.479 271.784 344.945 255.598 350.763 234.019C353.129 225.24 353.369 222.645 353.369 205.849C353.369 189.006 353.134 186.473 350.735 177.572C337.01 126.625 291.225 91.4981 239.119 91.9391C233.279 91.9881 224.9 92.6631 220.5 93.4381ZM239.827 119.06C237.7 119.779 231.676 128.793 210.355 163.157C175.316 219.629 174 221.833 174 224.086C174 225.14 175.315 227.318 176.923 228.926L179.846 231.849H202.423C223.27 231.849 224.998 231.983 224.97 233.599C224.954 234.561 223.657 247.27 222.087 261.841C220.339 278.067 219.557 289.184 220.069 290.53C221.836 295.177 229.221 296.382 232.751 292.599C233.906 291.361 250.851 268.074 270.407 240.849C301.258 197.901 305.966 190.873 305.982 187.754C305.994 185.354 305.301 183.526 303.897 182.254C301.958 180.498 299.713 180.326 275.147 180.057L248.5 179.764L249.393 152.268C250.014 133.149 249.961 124.06 249.221 122.435C247.869 119.468 243.384 117.856 239.827 119.06ZM231.227 159.599C227.825 164.5 197 214.609 197 215.239C197 215.574 205.805 215.849 216.566 215.849C227.327 215.849 236.94 216.282 237.929 216.811C241.809 218.888 242.132 222.33 240.133 240.349C239.096 249.699 238.358 257.478 238.493 257.635C238.628 257.792 248.672 244.067 260.814 227.135L282.89 196.349L260.103 196.081C230.85 195.737 232.77 197.14 232.944 176.228C233.012 168.088 233.326 160.397 233.642 159.138C234.408 156.086 233.553 156.249 231.227 159.599ZM37.163 201.448C34.652 203.206 0 271.643 0 274.843C0 275.885 1.054 277.963 2.342 279.46C4.958 282.502 9.744 283.136 12.544 280.813C13.451 280.059 18.954 269.972 24.772 258.396L35.349 237.349L36.219 241.349C42.167 268.688 46.841 282.688 56.08 300.849C83.174 354.105 131.864 393.123 189.5 407.769C212.582 413.634 242.048 415.435 265.687 412.426C303.796 407.576 340.453 392.007 370 368.125C379.868 360.149 398.062 341.332 405.359 331.557C416.977 315.993 428.135 295.277 434.21 277.993C436.433 271.667 435.541 267.872 431.385 265.979C425.513 263.303 422.106 265.517 418.948 274.06C409.984 298.303 396.217 320.12 377.574 339.629C321.308 398.51 232.586 414.949 158.942 380.139C106.12 355.172 66.89 306.418 54.103 249.849C51.428 238.011 50.045 227.697 51.184 228.077C51.658 228.235 61.073 236.686 72.107 246.857C83.141 257.027 93.188 265.629 94.433 265.972C100.093 267.529 105.093 262.339 103.613 256.443C103.106 254.424 59.131 212.469 47.173 202.596C43.39 199.472 40.462 199.137 37.163 201.448Z" fill="white" fill-opacity="0.988"/>
</svg>
