<svg width="512" height="512" viewBox="0 0 512 512" fill="none" xmlns="http://www.w3.org/2000/svg">
<path id="Vector" fill-rule="evenodd" clip-rule="evenodd" d="M131.394 1.07329C117.443 3.71429 101.51 15.7973 95.018 28.6583C89.962 38.6733 88.894 44.4883 88.894 62.0023C88.894 75.4803 89.14 77.9723 90.644 79.7503C93.503 83.1293 97.168 83.4313 100.503 80.5643L103.394 78.0793L103.932 60.2413C104.461 42.7213 104.526 42.2963 107.579 36.3873C111.392 29.0053 119.067 21.6503 126.676 18.0833L132.394 15.4033H255.894H379.394L385.606 18.2723C392.845 21.6163 401.959 30.5363 404.876 37.1313C408.435 45.1753 408.879 53.0193 408.886 107.998C408.894 158.645 408.995 161.684 410.723 163.248C413.239 165.525 418.449 165.348 420.894 162.903C422.848 160.949 422.894 159.578 422.882 103.153C422.869 40.6643 422.855 40.4763 417.319 29.1613C413.364 21.0773 403.289 10.8843 394.893 6.47229C381.973 -0.31671 387.276 -0.0717104 255.394 0.0322896C185.162 0.0882896 134.345 0.51529 131.394 1.07329ZM132.338 30.7893C127.407 33.0293 121.242 39.9893 119.896 44.8383C119.351 46.7993 118.903 54.9913 118.9 63.0423C118.895 75.7843 119.133 77.9773 120.738 79.9593C123.172 82.9643 128.234 83.0063 131.2 80.0453C133.228 78.0183 133.418 76.7323 133.714 62.9863C134.024 48.6063 134.117 48.0423 136.542 45.7613C138.852 43.5893 139.886 43.4033 149.685 43.4033H160.321L162.125 48.4033C163.117 51.1533 164.652 55.3633 165.534 57.7583C167.741 63.7443 172.432 68.7793 178.387 71.5523L183.394 73.8833H255.894H328.394L333.401 71.5523C339.356 68.7793 344.047 63.7443 346.254 57.7583C347.136 55.3633 348.671 51.1533 349.663 48.4033L351.467 43.4033H362.16C372.514 43.4033 372.942 43.4913 375.624 46.1753L378.394 48.9473L378.668 107.623C378.974 173.284 378.576 169.903 385.992 169.903C393.198 169.903 392.894 172.714 392.894 106.148C392.894 40.7753 393.082 42.8703 386.593 36.0313C380.689 29.8083 377.375 28.9503 359.144 28.9253C339.595 28.8993 340.355 28.4473 335.954 42.7093C332.415 54.1763 330.233 57.4343 325.09 58.9303C322.569 59.6633 299.875 59.9093 253.717 59.7043C187.001 59.4073 185.999 59.3733 183.217 57.3253C181.039 55.7213 179.48 52.6113 176.394 43.7103C174.194 37.3653 171.776 31.4383 171.022 30.5383C168.877 27.9833 138.077 28.1833 132.338 30.7893ZM210.349 32.3583C207.22 35.4863 207.22 39.3203 210.349 42.4483L212.803 44.9033H255.894H298.985L301.439 42.4483C302.789 41.0983 303.894 38.8283 303.894 37.4033C303.894 35.9783 302.789 33.7083 301.439 32.3583L298.985 29.9033H255.894H212.803L210.349 32.3583ZM15.133 99.2383C10.257 101.006 5.16704 105.472 2.64204 110.198L0.394045 114.403L0.117045 180.008C-0.150955 243.18 -0.0899553 245.701 1.73804 247.958C3.06004 249.591 4.67504 250.303 7.05804 250.303C9.93104 250.303 13.783 247.789 31.115 234.603L51.752 218.903H101.957C136.682 218.903 153.337 218.551 155.972 217.762C161.042 216.242 166.446 211.656 169.173 206.556C171.371 202.446 171.394 201.949 171.394 158.403C171.394 114.857 171.371 114.36 169.173 110.25C166.446 105.15 161.042 100.564 155.972 99.0443C150.872 97.5163 72.622 97.4433 69.78 98.9643C64.984 101.531 65.435 109.462 70.509 111.773C72.218 112.552 85.26 112.903 112.487 112.903H151.985L154.439 115.358L156.894 117.812V158.247C156.894 196.563 156.794 198.805 154.983 201.042L153.072 203.403L99.721 203.903L46.371 204.403L30.882 216.118L15.394 227.834L15.135 173.118C14.889 121.097 14.968 118.28 16.738 115.903C18.491 113.549 19.272 113.374 30.144 112.903C39.637 112.492 42.062 112.064 43.791 110.498C46.536 108.012 46.588 102.597 43.894 99.9033C42.111 98.1203 40.62 97.9113 30.144 97.9793C23.681 98.0213 16.926 98.5873 15.133 99.2383ZM304.657 121.936C285.427 125.174 268.714 138.991 262.408 156.864C259.782 164.305 258.545 174.646 259.891 177.895C261.387 181.506 265.567 183.358 269.149 181.996C272.495 180.724 273.491 178.722 274.168 171.903C275.149 162.044 278.491 155.123 285.803 147.812C293.114 140.5 300.035 137.158 309.894 136.177C312.919 135.877 316.203 135.215 317.192 134.706C321.661 132.408 321.083 124.221 316.297 122.041C313.529 120.779 311.627 120.762 304.657 121.936ZM40.549 135.732C38.272 138.248 38.449 143.458 40.894 145.903C42.832 147.841 44.227 147.903 85.894 147.903C127.561 147.903 128.956 147.841 130.894 145.903C132.005 144.792 132.894 142.57 132.894 140.903C132.894 139.236 132.005 137.014 130.894 135.903C128.956 133.965 127.561 133.903 85.549 133.903C44.827 133.903 42.104 134.014 40.549 135.732ZM302.774 155.697C290.053 162.343 286.314 182.236 297.786 182.236C301.843 182.236 304.001 180.077 305.894 174.121C307.273 169.785 307.776 169.282 312.112 167.903C318.068 166.01 320.227 163.852 320.227 159.795C320.227 152.758 312.067 150.842 302.774 155.697ZM40.549 169.732C38.272 172.248 38.449 177.458 40.894 179.903C42.824 181.833 44.227 181.903 80.894 181.903C117.561 181.903 118.964 181.833 120.894 179.903C122.005 178.792 122.894 176.57 122.894 174.903C122.894 173.236 122.005 171.014 120.894 169.903C118.964 167.973 117.561 167.903 80.549 167.903C44.671 167.903 42.097 168.021 40.549 169.732ZM421.092 178.522C418.727 179.392 414.091 182.604 410.791 185.659L404.791 191.213L397.093 188.571C376.301 181.436 355.967 182.993 336.394 193.22C329.359 196.895 325.672 200.084 305.835 219.646L283.276 241.893L264.335 248.459C244.448 255.352 240.934 257.396 238.271 263.621C236.47 267.829 236.521 274.075 238.392 278.552C239.253 280.613 246.274 288.604 254.909 297.353L269.929 312.57L267.666 317.487C265.85 321.433 265.403 324.178 265.399 331.403C265.395 339.228 265.757 341.143 268.175 346.067C273.375 356.656 283.092 363.965 294.306 365.724C300.96 366.767 309.641 365.596 314.75 362.966L318.394 361.09L334.394 376.806C348.06 390.229 351.072 392.71 355.043 393.814C362.27 395.823 369.407 393.648 374.174 387.982C375.723 386.142 379.032 377.981 382.771 366.783L388.85 348.576L411.181 325.989C432.074 304.858 433.814 302.814 438.198 294.255C444.925 281.12 447.25 270.561 446.642 255.903C446.257 246.599 445.588 242.688 443.142 235.421L440.118 226.438L445.164 220.921C447.94 217.886 451.03 213.603 452.03 211.403C454.291 206.433 454.442 197.152 452.343 192.121C447.549 180.625 432.81 174.212 421.092 178.522ZM421.94 195.48L417.98 199.058L425.098 206.176L432.217 213.294L435.555 209.432C440.326 203.913 440.418 198.915 435.825 194.653C431.501 190.639 427.002 190.907 421.94 195.48ZM357.096 200.863C343.369 204.576 339.149 207.575 317.394 229.076L297.394 248.843L307.719 259.216C317.143 268.683 318.016 269.877 317.719 272.897C317.287 277.291 313.209 280.45 309.249 279.456C307.591 279.04 301.894 274.296 295.412 267.933L284.394 257.118L268.98 262.374C253.478 267.661 250.144 269.691 251.868 272.791C253.74 276.159 358.515 379.903 360.044 379.903C362.504 379.903 363.177 378.546 368.887 362.065L374.202 346.728L352.154 324.565C340.028 312.376 329.608 301.42 329 300.219C327.329 296.918 327.648 295.058 330.349 292.358C335.41 287.296 336.44 287.966 360.417 311.926L382.457 333.95L401.98 314.176C423.157 292.728 426.911 287.409 430.405 273.903C432.748 264.844 432.091 247.704 429.084 239.471C422.599 221.715 408.583 207.909 390.894 201.854C381.563 198.659 366.84 198.228 357.096 200.863ZM93.209 234.91C92.008 235.394 90.545 236.686 89.959 237.781C89.231 239.141 88.894 264.637 88.894 318.265V396.758L91.529 398.83C94.556 401.212 95.804 401.357 99.356 399.738C100.976 399 102.294 397.26 102.953 394.988C103.645 392.603 103.893 365.85 103.694 315.066L103.394 238.729L100.588 236.316C97.577 233.726 96.606 233.541 93.209 234.91ZM123.209 234.919C122.008 235.398 120.545 236.686 119.959 237.781C118.535 240.441 118.474 461.85 119.896 466.968C121.242 471.817 127.407 478.777 132.338 481.017C136.205 482.773 141.96 482.86 255.676 482.881C387.32 482.905 378.683 483.322 385.766 476.602C392.639 470.081 392.848 468.871 392.872 435.308C392.892 407.406 392.761 405.092 391.065 403.558C388.623 401.348 382.642 401.419 380.594 403.682C379.208 405.213 378.943 409.458 378.689 434.161L378.394 462.861L375.621 465.632L372.849 468.403H255.952H139.055L136.487 465.991L133.919 463.578L133.657 351.268C133.397 240.441 133.368 238.933 131.394 237.035C128.823 234.563 125.96 233.823 123.209 234.919ZM467.66 314.653C466.811 315.615 465.791 317.978 465.394 319.903C464.426 324.594 462.348 326.734 458.007 327.51C452.862 328.43 450.894 330.512 450.894 335.035C450.894 340.252 454.03 342.337 460.886 341.678C470.697 340.735 478.857 332.39 479.681 322.457C480.05 318.01 479.774 316.783 478.008 315.017C475.384 312.393 469.827 312.197 467.66 314.653ZM499.41 314.885C498.223 316.197 497.235 319.408 496.731 323.593C494.488 342.228 480.219 356.497 461.584 358.74C453.708 359.688 450.894 361.736 450.894 366.519C450.894 373.572 456.853 375.415 469.791 372.366C491.291 367.297 507.97 349.053 511.115 327.162C512.229 319.407 512.178 318.759 510.247 316.162C507.546 312.53 502.121 311.89 499.41 314.885ZM280.539 325.385C280.184 326.31 279.894 329.209 279.894 331.828C279.894 342.704 288.798 351.37 299.972 351.37C303.156 351.37 306.108 351.022 306.533 350.597C306.958 350.172 301.429 343.947 294.245 336.764C284.018 326.536 281.045 324.068 280.539 325.385ZM413.894 345.622C413.069 345.92 411.606 346.85 410.644 347.688C409.018 349.105 408.893 353.042 408.886 403.308C408.882 435.457 408.462 460.04 407.85 463.903C407.284 467.478 405.711 472.702 404.353 475.512C401.203 482.032 392.533 490.246 385.147 493.707L379.394 496.403H255.894H132.394L126.676 493.723C119.079 490.162 111.402 482.812 107.56 475.419L104.433 469.403L103.913 447.755C103.447 428.301 103.201 425.894 101.489 424.005C98.803 421.041 92.564 421.109 90.451 424.126C88.252 427.264 88.201 462.823 90.383 471.2C95.538 490.992 112.783 507.284 132.328 510.827C136.347 511.556 176.348 511.897 256.328 511.886C387.121 511.866 382.002 512.108 394.893 505.334C403.289 500.922 413.364 490.729 417.319 482.645C422.862 471.317 422.869 471.216 422.882 407.808C422.893 353.247 422.774 349.107 421.144 347.676C418.986 345.782 415.886 344.903 413.894 345.622ZM165.549 356.732C163.272 359.248 163.449 364.458 165.894 366.903C167.754 368.763 169.227 368.903 186.894 368.903C204.561 368.903 206.034 368.763 207.894 366.903C210.448 364.349 210.539 358.797 208.065 356.558C206.495 355.137 203.477 354.903 186.72 354.903C169.083 354.903 167.045 355.079 165.549 356.732ZM165.549 391.732C163.272 394.248 163.449 399.458 165.894 401.903C167.802 403.811 169.227 403.903 196.894 403.903C224.561 403.903 225.986 403.811 227.894 401.903C230.448 399.349 230.539 393.797 228.065 391.558C226.451 390.097 222.782 389.903 196.72 389.903C169.395 389.903 167.081 390.039 165.549 391.732ZM209.967 436.538C208.827 437.987 207.894 440.237 207.894 441.538C207.894 444.309 210.885 447.615 214.119 448.416C215.37 448.727 235.222 448.851 258.233 448.692L300.072 448.403L301.983 446.042C304.571 442.845 304.404 438.731 301.58 436.077C299.276 433.914 299.054 433.903 255.652 433.903H212.039L209.967 436.538Z" fill="white" fill-opacity="0.985"/>
</svg>
