<svg width="513" height="511" viewBox="0 0 513 511" fill="none" xmlns="http://www.w3.org/2000/svg">
<path id="Vector" fill-rule="evenodd" clip-rule="evenodd" d="M241.017 0.486435C156.046 4.70644 77.013 53.2624 34.222 127.537L31.537 132.199L20.597 132.537C8.775 132.903 6.551 133.771 2.079 139.761C0.0250001 142.512 0.017 142.955 0.017 255.376C0.017 367.797 0.0250001 368.24 2.079 370.991C6.551 376.981 8.776 377.849 20.594 378.215L31.532 378.553L35.452 385.215C76.169 454.419 147.546 500.429 228.017 509.343C242.616 510.96 272.893 510.712 287.017 508.86C367.625 498.289 436.994 452.347 476.865 383.126L479.601 378.376H488.994C502.247 378.376 506.558 376.294 510.608 367.938C512.451 364.136 512.517 360.199 512.517 253.629C512.517 180.303 512.181 143.465 511.517 143.876C510.967 144.216 510.517 143.827 510.517 143.012C510.517 140.675 505.433 135.239 501.846 133.74C499.867 132.913 494.844 132.376 489.091 132.376H479.601L476.874 127.626C461.888 101.523 439.135 75.0404 415.213 55.8584C374.701 23.3744 321.735 2.86844 273.017 0.806435C266.417 0.527435 259.667 0.184435 258.017 0.0444352C256.367 -0.0945648 248.717 0.103435 241.017 0.486435ZM243.017 14.9874C200.161 18.2274 164.726 29.1624 130.517 49.7034C101.115 67.3574 70.937 96.9924 52.181 126.626L48.542 132.376L63.779 132.331L79.017 132.286L85.017 124.117C92.066 114.519 111.01 95.1134 121.127 87.1274C151.529 63.1284 188.589 47.2104 226.312 41.9484C239.33 40.1334 269.34 39.8414 281.195 41.4144C313.458 45.6984 344.249 56.6014 370.017 72.8684C386.598 83.3364 390.517 87.7164 390.517 95.7794C390.517 97.6864 390.046 100.513 389.471 102.061C388.886 103.636 355.962 137.36 314.724 178.626C247.324 246.07 240.744 252.376 237.77 252.376C233.544 252.376 230.517 249.353 230.517 245.132C230.517 242.217 233.414 238.99 259.179 213.214L287.842 184.538L284.374 183.089C275.962 179.575 266.943 177.984 255.517 177.998C241.224 178.017 233.167 179.88 220.517 186.092C212.315 190.12 209.643 192.131 200.957 200.816C192.272 209.502 190.261 212.174 186.233 220.376C180.021 233.026 178.158 241.083 178.139 255.376C178.125 266.791 179.716 275.821 183.219 284.205L184.656 287.646L198.417 274.011C213.455 259.11 215.359 258.127 220.062 262.831C225.473 268.241 227.425 265.925 163.777 329.608C121.364 372.044 104.097 388.689 101.658 389.494C97.419 390.894 90.342 390.147 86.983 387.946C85.573 387.022 83.204 384.508 81.718 382.359L79.017 378.452L63.779 378.414L48.542 378.376L52.181 384.126C60.36 397.049 73.719 413.59 85.511 425.395C130.957 470.889 190.552 495.6 255.017 495.68C294.001 495.728 328.849 487.638 362.972 470.618C401.311 451.495 436.046 420.161 458.853 384.126L462.492 378.376L447.255 378.421L432.017 378.466L426.017 386.583C418.521 396.725 400.517 415.154 390.201 423.246C381.076 430.403 377.124 431.235 373.59 426.741C369.53 421.58 370.287 420.427 386.961 406.376C391.857 402.251 399.863 394.376 404.752 388.876L413.642 378.876L329.491 378.376L245.34 377.876L243.428 375.515C240.952 372.457 241.006 369.296 243.59 366.011L245.662 363.376H371.09H496.517V255.376V147.376H449.242H401.967L394.517 154.876L387.067 162.376H412.745C429.434 162.376 439.276 162.765 440.86 163.486C443.857 164.852 445.514 168.29 445.527 173.173C445.541 178.501 449.516 186.236 454.674 190.97C459.473 195.375 465.218 197.888 472.739 198.872C476.169 199.321 478.017 200.196 479.489 202.068C481.466 204.58 481.517 205.929 481.517 255.376C481.517 304.823 481.466 306.172 479.489 308.684C478.017 310.556 476.169 311.431 472.739 311.88C465.218 312.864 459.473 315.377 454.674 319.782C449.516 324.516 445.541 332.251 445.527 337.579C445.514 342.462 443.857 345.9 440.86 347.266C439.118 348.06 404.578 348.376 319.695 348.376H200.967L193.517 355.876L186.067 363.376H202.837C219.31 363.376 219.652 363.42 222.062 365.831C225.006 368.774 225.205 372.304 222.607 375.515C220.704 377.866 220.596 377.877 195.857 378.164L171.017 378.451L153.267 396.153C143.505 405.889 135.517 414.398 135.517 415.061C135.517 415.725 139.904 419.18 145.267 422.74C202.708 460.874 277.456 466.47 339.414 437.275C351.4 431.628 354.479 431.241 357.444 435.011C362.004 440.807 359.576 444.555 347.721 450.02C329.254 458.531 311.272 464.2 290.517 468.053C276.803 470.599 234.063 470.63 220.517 468.104C197.314 463.778 180.362 458.294 160.983 448.846C148.781 442.897 131.032 431.947 125.638 427.04C120.762 422.604 119.158 414.436 121.917 408.094C122.742 406.199 181.63 346.631 265.167 263.19C392.679 135.824 407.402 121.434 410.823 120.818C418.9 119.363 424.721 121.748 429.316 128.393L432.017 132.3L447.255 132.338L462.492 132.376L458.853 126.626C446.404 106.956 424.878 82.7114 407.193 68.4404C373.353 41.1334 329.714 22.3644 287.517 16.9694C275.379 15.4174 251.436 14.3514 243.017 14.9874ZM239.319 55.4254C202.064 58.4894 165.557 72.5324 134.517 95.7414C124.877 102.948 106.647 120.377 100.642 128.126L97.349 132.376H218.693H340.038L357.777 114.616C367.534 104.848 375.517 96.3224 375.517 95.6704C375.517 93.8444 357.336 82.1954 344.572 75.8444C312.104 59.6874 275.004 52.4904 239.319 55.4254ZM0 255.376C0 316.701 0.12 341.789 0.267 311.126C0.414 280.463 0.414 230.289 0.267 199.626C0.12 168.963 0 194.051 0 255.376ZM14.517 255.376V363.376H61.792H109.067L116.517 355.876L123.967 348.376H98.289C81.335 348.376 71.769 347.992 70.132 347.246C67.295 345.954 65.924 342.912 65.118 336.123C63.61 323.408 52.98 313.801 38.295 311.88C34.865 311.431 33.017 310.556 31.545 308.684C29.569 306.172 29.517 304.821 29.517 255.788C29.517 219.768 29.846 204.747 30.676 202.926C31.852 200.345 36.433 198.416 41.517 198.36C45.395 198.317 52.623 194.646 56.852 190.571C61.699 185.9 64.399 180.694 65.118 174.629C65.924 167.84 67.295 164.798 70.132 163.506C71.93 162.686 105.228 162.376 191.339 162.376H310.067L317.517 154.876L324.967 147.376H169.742H14.517V255.376ZM80.184 178.043C79.817 178.409 79.517 179.474 79.517 180.408C79.517 183.647 72.605 195.897 68.321 200.251C62.733 205.931 57.333 209.325 50.517 211.442L45.017 213.151V255.376V297.601L50.837 299.402C63.655 303.368 73.954 313.895 78.681 327.863L80.378 332.876L109.698 333.139L139.017 333.402L156.299 316.097L173.58 298.792L170.52 292.043C162.942 275.331 160.906 252.276 165.382 233.876C169.878 215.395 182.801 194.784 196.694 183.94C200.171 181.225 203.445 178.638 203.967 178.19C204.49 177.742 177.002 177.376 142.884 177.376C108.765 177.376 80.55 177.676 80.184 178.043ZM354.735 194.655L337.454 211.96L340.514 218.709C348.092 235.421 350.128 258.476 345.652 276.876C341.062 295.743 328.169 316.089 313.649 327.376L306.574 332.876L367.796 333.135C401.467 333.278 429.58 333.18 430.267 332.917C430.955 332.654 431.517 331.624 431.517 330.629C431.517 329.634 433.039 325.682 434.899 321.848C440.235 310.847 449.438 302.751 460.517 299.31L466.017 297.601V255.376V213.151L460.517 211.442C447.447 207.382 437.088 196.88 432.353 182.889L430.656 177.876L401.336 177.613L372.017 177.35L354.735 194.655ZM274.576 274.817L223.188 326.212L226.659 327.662C239.533 333.041 260.408 334.489 274.017 330.946C288.075 327.286 298.644 321.318 309.356 310.988C331.077 290.044 338.676 259.731 329.376 231.123C328.259 227.687 327.034 224.549 326.654 224.149C326.274 223.749 302.839 246.55 274.576 274.817Z" fill="white" fill-opacity="0.99"/>
</svg>
